<svg width="1295" height="174" viewBox="0 0 1295 174" fill="none" xmlns="http://www.w3.org/2000/svg">
<path d="M80.46 13.325V28.67H49.935V128H31.125V28.67H0.435V13.325H80.46ZM182.835 80.315C182.835 83.725 182.615 86.805 182.175 89.555H112.71C113.26 96.815 115.955 102.645 120.795 107.045C125.635 111.445 131.575 113.645 138.615 113.645C148.735 113.645 155.885 109.41 160.065 100.94H180.36C177.61 109.3 172.605 116.175 165.345 121.565C158.195 126.845 149.285 129.485 138.615 129.485C129.925 129.485 122.115 127.56 115.185 123.71C108.365 119.75 102.975 114.25 99.0148 107.21C95.1648 100.06 93.2398 91.81 93.2398 82.46C93.2398 73.11 95.1098 64.915 98.8498 57.875C102.7 50.725 108.035 45.225 114.855 41.375C121.785 37.525 129.705 35.6 138.615 35.6C147.195 35.6 154.84 37.47 161.55 41.21C168.26 44.95 173.485 50.23 177.225 57.05C180.965 63.76 182.835 71.515 182.835 80.315ZM163.2 74.375C163.09 67.445 160.615 61.89 155.775 57.71C150.935 53.53 144.94 51.44 137.79 51.44C131.3 51.44 125.745 53.53 121.125 57.71C116.505 61.78 113.755 67.335 112.875 74.375H163.2ZM247.216 35.6C254.366 35.6 260.746 37.085 266.356 40.055C272.076 43.025 276.531 47.425 279.721 53.255C282.911 59.085 284.506 66.125 284.506 74.375V128H265.861V77.18C265.861 69.04 263.826 62.825 259.756 58.535C255.686 54.135 250.131 51.935 243.091 51.935C236.051 51.935 230.441 54.135 226.261 58.535C222.191 62.825 220.156 69.04 220.156 77.18V128H201.346V37.085H220.156V47.48C223.236 43.74 227.141 40.825 231.871 38.735C236.711 36.645 241.826 35.6 247.216 35.6ZM318.069 25.04C314.659 25.04 311.799 23.885 309.489 21.575C307.179 19.265 306.024 16.405 306.024 12.995C306.024 9.58499 307.179 6.72499 309.489 4.415C311.799 2.10499 314.659 0.949993 318.069 0.949993C321.369 0.949993 324.174 2.10499 326.484 4.415C328.794 6.72499 329.949 9.58499 329.949 12.995C329.949 16.405 328.794 19.265 326.484 21.575C324.174 23.885 321.369 25.04 318.069 25.04ZM327.309 145.82C327.309 154.73 325.054 161.165 320.544 165.125C316.144 169.195 309.709 171.23 301.239 171.23H291.504V155.39H297.939C301.789 155.39 304.484 154.62 306.024 153.08C307.674 151.65 308.499 149.23 308.499 145.82V37.085H327.309V145.82ZM391.44 129.485C382.86 129.485 375.105 127.56 368.175 123.71C361.245 119.75 355.8 114.25 351.84 107.21C347.88 100.06 345.9 91.81 345.9 82.46C345.9 73.22 347.935 65.025 352.005 57.875C356.075 50.725 361.63 45.225 368.67 41.375C375.71 37.525 383.575 35.6 392.265 35.6C400.955 35.6 408.82 37.525 415.86 41.375C422.9 45.225 428.455 50.725 432.525 57.875C436.595 65.025 438.63 73.22 438.63 82.46C438.63 91.7 436.54 99.895 432.36 107.045C428.18 114.195 422.46 119.75 415.2 123.71C408.05 127.56 400.13 129.485 391.44 129.485ZM391.44 113.15C396.28 113.15 400.79 111.995 404.97 109.685C409.26 107.375 412.725 103.91 415.365 99.29C418.005 94.67 419.325 89.06 419.325 82.46C419.325 75.86 418.06 70.305 415.53 65.795C413 61.175 409.645 57.71 405.465 55.4C401.285 53.09 396.775 51.935 391.935 51.935C387.095 51.935 382.585 53.09 378.405 55.4C374.335 57.71 371.09 61.175 368.67 65.795C366.25 70.305 365.04 75.86 365.04 82.46C365.04 92.25 367.515 99.84 372.465 105.23C377.525 110.51 383.85 113.15 391.44 113.15ZM522.895 128L486.43 77.015V128H454.09V11.675H486.43V61.835L522.565 11.675H559.855L517.12 68.105L562 128H522.895ZM568.531 81.635C568.531 72.065 570.236 63.705 573.646 56.555C577.166 49.405 581.896 43.905 587.836 40.055C593.886 36.205 600.596 34.28 607.966 34.28C614.346 34.28 619.846 35.545 624.466 38.075C629.086 40.605 632.661 44.015 635.191 48.305V35.435H667.531V128H635.191V115.13C632.661 119.42 629.031 122.83 624.301 125.36C619.681 127.89 614.236 129.155 607.966 129.155C600.596 129.155 593.886 127.23 587.836 123.38C581.896 119.53 577.166 114.03 573.646 106.88C570.236 99.62 568.531 91.205 568.531 81.635ZM635.191 81.635C635.191 75.695 633.541 71.02 630.241 67.61C627.051 64.2 623.091 62.495 618.361 62.495C613.521 62.495 609.506 64.2 606.316 67.61C603.126 70.91 601.531 75.585 601.531 81.635C601.531 87.575 603.126 92.305 606.316 95.825C609.506 99.235 613.521 100.94 618.361 100.94C623.091 100.94 627.051 99.235 630.241 95.825C633.541 92.415 635.191 87.685 635.191 81.635ZM806.905 34.61C818.565 34.61 827.695 38.13 834.295 45.17C841.005 52.21 844.36 61.835 844.36 74.045V128H812.02V78.335C812.02 73.385 810.645 69.535 807.895 66.785C805.145 64.035 801.405 62.66 796.675 62.66C791.945 62.66 788.205 64.035 785.455 66.785C782.705 69.535 781.33 73.385 781.33 78.335V128H748.99V78.335C748.99 73.385 747.615 69.535 744.865 66.785C742.225 64.035 738.54 62.66 733.81 62.66C728.97 62.66 725.175 64.035 722.425 66.785C719.675 69.535 718.3 73.385 718.3 78.335V128H685.96V35.435H718.3V47.645C721.16 43.685 724.845 40.55 729.355 38.24C733.975 35.82 739.255 34.61 745.195 34.61C752.015 34.61 758.065 36.095 763.345 39.065C768.735 42.035 772.97 46.215 776.05 51.605C779.35 46.545 783.695 42.475 789.085 39.395C794.475 36.205 800.415 34.61 806.905 34.61ZM894.418 48.305C896.948 44.015 900.523 40.605 905.143 38.075C909.763 35.545 915.208 34.28 921.478 34.28C928.848 34.28 935.503 36.205 941.443 40.055C947.493 43.905 952.223 49.405 955.633 56.555C959.153 63.705 960.913 72.065 960.913 81.635C960.913 91.205 959.153 99.62 955.633 106.88C952.223 114.03 947.493 119.53 941.443 123.38C935.503 127.23 928.848 129.155 921.478 129.155C915.208 129.155 909.763 127.89 905.143 125.36C900.633 122.83 897.058 119.42 894.418 115.13V172.22H862.078V35.435H894.418V48.305ZM928.078 81.635C928.078 75.585 926.428 70.91 923.128 67.61C919.938 64.2 915.978 62.495 911.248 62.495C906.518 62.495 902.503 64.2 899.203 67.61C896.013 71.02 894.418 75.695 894.418 81.635C894.418 87.685 896.013 92.415 899.203 95.825C902.503 99.235 906.518 100.94 911.248 100.94C915.978 100.94 919.938 99.235 923.128 95.825C926.428 92.305 928.078 87.575 928.078 81.635ZM1068.94 35.435V128H1036.43V114.8C1033.68 118.98 1029.89 122.39 1025.05 125.03C1020.21 127.56 1014.65 128.825 1008.38 128.825C997.601 128.825 989.076 125.305 982.806 118.265C976.646 111.115 973.566 101.435 973.566 89.225V35.435H1005.74V85.1C1005.74 90.38 1007.12 94.56 1009.87 97.64C1012.73 100.61 1016.47 102.095 1021.09 102.095C1025.82 102.095 1029.56 100.61 1032.31 97.64C1035.06 94.56 1036.43 90.38 1036.43 85.1V35.435H1068.94ZM1147.9 34.61C1158.57 34.61 1167.04 38.185 1173.31 45.335C1179.58 52.375 1182.71 61.945 1182.71 74.045V128H1150.37V78.335C1150.37 73.055 1149 68.93 1146.25 65.96C1143.5 62.88 1139.81 61.34 1135.19 61.34C1130.35 61.34 1126.56 62.88 1123.81 65.96C1121.06 68.93 1119.68 73.055 1119.68 78.335V128H1087.34V35.435H1119.68V48.635C1122.54 44.455 1126.39 41.1 1131.23 38.57C1136.07 35.93 1141.63 34.61 1147.9 34.61ZM1234.61 34.28C1240.88 34.28 1246.33 35.545 1250.95 38.075C1255.68 40.605 1259.31 44.015 1261.84 48.305V35.435H1294.18V127.01C1294.18 135.7 1292.53 143.51 1289.23 150.44C1285.93 157.48 1280.76 163.09 1273.72 167.27C1266.79 171.45 1257.99 173.54 1247.32 173.54C1233.02 173.54 1221.58 170.185 1213 163.475C1204.42 156.765 1199.52 147.635 1198.31 136.085H1230.16C1230.82 139.055 1232.47 141.365 1235.11 143.015C1237.75 144.665 1241.16 145.49 1245.34 145.49C1256.34 145.49 1261.84 139.33 1261.84 127.01V115.13C1259.31 119.42 1255.68 122.83 1250.95 125.36C1246.33 127.89 1240.88 129.155 1234.61 129.155C1227.24 129.155 1220.53 127.23 1214.48 123.38C1208.54 119.53 1203.81 114.03 1200.29 106.88C1196.88 99.62 1195.18 91.205 1195.18 81.635C1195.18 72.065 1196.88 63.705 1200.29 56.555C1203.81 49.405 1208.54 43.905 1214.48 40.055C1220.53 36.205 1227.24 34.28 1234.61 34.28ZM1261.84 81.635C1261.84 75.695 1260.19 71.02 1256.89 67.61C1253.7 64.2 1249.74 62.495 1245.01 62.495C1240.17 62.495 1236.15 64.2 1232.96 67.61C1229.77 70.91 1228.18 75.585 1228.18 81.635C1228.18 87.575 1229.77 92.305 1232.96 95.825C1236.15 99.235 1240.17 100.94 1245.01 100.94C1249.74 100.94 1253.7 99.235 1256.89 95.825C1260.19 92.415 1261.84 87.685 1261.84 81.635Z" fill="white"/>
</svg>
