<svg width="1313" height="177" viewBox="0 0 1313 177" fill="none" xmlns="http://www.w3.org/2000/svg">
<g clip-path="url(#clip0_73_79)">
<path d="M90.46 9.32499V24.67H59.935V124H41.125V24.67H10.435V9.32499H90.46ZM192.835 76.315C192.835 79.725 192.615 82.805 192.175 85.555H122.71C123.26 92.815 125.955 98.645 130.795 103.045C135.635 107.445 141.575 109.645 148.615 109.645C158.735 109.645 165.885 105.41 170.065 96.94H190.36C187.61 105.3 182.605 112.175 175.345 117.565C168.195 122.845 159.285 125.485 148.615 125.485C139.925 125.485 132.115 123.56 125.185 119.71C118.365 115.75 112.975 110.25 109.015 103.21C105.165 96.06 103.24 87.81 103.24 78.46C103.24 69.11 105.11 60.915 108.85 53.875C112.7 46.725 118.035 41.225 124.855 37.375C131.785 33.525 139.705 31.6 148.615 31.6C157.195 31.6 164.84 33.47 171.55 37.21C178.26 40.95 183.485 46.23 187.225 53.05C190.965 59.76 192.835 67.515 192.835 76.315ZM173.2 70.375C173.09 63.445 170.615 57.89 165.775 53.71C160.935 49.53 154.94 47.44 147.79 47.44C141.3 47.44 135.745 49.53 131.125 53.71C126.505 57.78 123.755 63.335 122.875 70.375H173.2ZM257.216 31.6C264.366 31.6 270.746 33.085 276.356 36.055C282.076 39.025 286.531 43.425 289.721 49.255C292.911 55.085 294.506 62.125 294.506 70.375V124H275.861V73.18C275.861 65.04 273.826 58.825 269.756 54.535C265.686 50.135 260.131 47.935 253.091 47.935C246.051 47.935 240.441 50.135 236.261 54.535C232.191 58.825 230.156 65.04 230.156 73.18V124H211.346V33.085H230.156V43.48C233.236 39.74 237.141 36.825 241.871 34.735C246.711 32.645 251.826 31.6 257.216 31.6ZM328.069 21.04C324.659 21.04 321.799 19.885 319.489 17.575C317.179 15.265 316.024 12.405 316.024 8.995C316.024 5.58499 317.179 2.72499 319.489 0.414998C321.799 -1.89501 324.659 -3.05001 328.069 -3.05001C331.369 -3.05001 334.174 -1.89501 336.484 0.414998C338.794 2.72499 339.949 5.58499 339.949 8.995C339.949 12.405 338.794 15.265 336.484 17.575C334.174 19.885 331.369 21.04 328.069 21.04ZM337.309 141.82C337.309 150.73 335.054 157.165 330.544 161.125C326.144 165.195 319.709 167.23 311.239 167.23H301.504V151.39H307.939C311.789 151.39 314.484 150.62 316.024 149.08C317.674 147.65 318.499 145.23 318.499 141.82V33.085H337.309V141.82ZM401.44 125.485C392.86 125.485 385.105 123.56 378.175 119.71C371.245 115.75 365.8 110.25 361.84 103.21C357.88 96.06 355.9 87.81 355.9 78.46C355.9 69.22 357.935 61.025 362.005 53.875C366.075 46.725 371.63 41.225 378.67 37.375C385.71 33.525 393.575 31.6 402.265 31.6C410.955 31.6 418.82 33.525 425.86 37.375C432.9 41.225 438.455 46.725 442.525 53.875C446.595 61.025 448.63 69.22 448.63 78.46C448.63 87.7 446.54 95.895 442.36 103.045C438.18 110.195 432.46 115.75 425.2 119.71C418.05 123.56 410.13 125.485 401.44 125.485ZM401.44 109.15C406.28 109.15 410.79 107.995 414.97 105.685C419.26 103.375 422.725 99.91 425.365 95.29C428.005 90.67 429.325 85.06 429.325 78.46C429.325 71.86 428.06 66.305 425.53 61.795C423 57.175 419.645 53.71 415.465 51.4C411.285 49.09 406.775 47.935 401.935 47.935C397.095 47.935 392.585 49.09 388.405 51.4C384.335 53.71 381.09 57.175 378.67 61.795C376.25 66.305 375.04 71.86 375.04 78.46C375.04 88.25 377.515 95.84 382.465 101.23C387.525 106.51 393.85 109.15 401.44 109.15ZM532.895 124L496.43 73.015V124H464.09V7.67499H496.43V57.835L532.565 7.67499H569.855L527.12 64.105L572 124H532.895ZM578.531 77.635C578.531 68.065 580.236 59.705 583.646 52.555C587.166 45.405 591.896 39.905 597.836 36.055C603.886 32.205 610.596 30.28 617.966 30.28C624.346 30.28 629.846 31.545 634.466 34.075C639.086 36.605 642.661 40.015 645.191 44.305V31.435H677.531V124H645.191V111.13C642.661 115.42 639.031 118.83 634.301 121.36C629.681 123.89 624.236 125.155 617.966 125.155C610.596 125.155 603.886 123.23 597.836 119.38C591.896 115.53 587.166 110.03 583.646 102.88C580.236 95.62 578.531 87.205 578.531 77.635ZM645.191 77.635C645.191 71.695 643.541 67.02 640.241 63.61C637.051 60.2 633.091 58.495 628.361 58.495C623.521 58.495 619.506 60.2 616.316 63.61C613.126 66.91 611.531 71.585 611.531 77.635C611.531 83.575 613.126 88.305 616.316 91.825C619.506 95.235 623.521 96.94 628.361 96.94C633.091 96.94 637.051 95.235 640.241 91.825C643.541 88.415 645.191 83.685 645.191 77.635ZM816.905 30.61C828.565 30.61 837.695 34.13 844.295 41.17C851.005 48.21 854.36 57.835 854.36 70.045V124H822.02V74.335C822.02 69.385 820.645 65.535 817.895 62.785C815.145 60.035 811.405 58.66 806.675 58.66C801.945 58.66 798.205 60.035 795.455 62.785C792.705 65.535 791.33 69.385 791.33 74.335V124H758.99V74.335C758.99 69.385 757.615 65.535 754.865 62.785C752.225 60.035 748.54 58.66 743.81 58.66C738.97 58.66 735.175 60.035 732.425 62.785C729.675 65.535 728.3 69.385 728.3 74.335V124H695.96V31.435H728.3V43.645C731.16 39.685 734.845 36.55 739.355 34.24C743.975 31.82 749.255 30.61 755.195 30.61C762.015 30.61 768.065 32.095 773.345 35.065C778.735 38.035 782.97 42.215 786.05 47.605C789.35 42.545 793.695 38.475 799.085 35.395C804.475 32.205 810.415 30.61 816.905 30.61ZM904.418 44.305C906.948 40.015 910.523 36.605 915.143 34.075C919.763 31.545 925.208 30.28 931.478 30.28C938.848 30.28 945.503 32.205 951.443 36.055C957.493 39.905 962.223 45.405 965.633 52.555C969.153 59.705 970.913 68.065 970.913 77.635C970.913 87.205 969.153 95.62 965.633 102.88C962.223 110.03 957.493 115.53 951.443 119.38C945.503 123.23 938.848 125.155 931.478 125.155C925.208 125.155 919.763 123.89 915.143 121.36C910.633 118.83 907.058 115.42 904.418 111.13V168.22H872.078V31.435H904.418V44.305ZM938.078 77.635C938.078 71.585 936.428 66.91 933.128 63.61C929.938 60.2 925.978 58.495 921.248 58.495C916.518 58.495 912.503 60.2 909.203 63.61C906.013 67.02 904.418 71.695 904.418 77.635C904.418 83.685 906.013 88.415 909.203 91.825C912.503 95.235 916.518 96.94 921.248 96.94C925.978 96.94 929.938 95.235 933.128 91.825C936.428 88.305 938.078 83.575 938.078 77.635ZM1078.94 31.435V124H1046.43V110.8C1043.68 114.98 1039.89 118.39 1035.05 121.03C1030.21 123.56 1024.65 124.825 1018.38 124.825C1007.6 124.825 999.076 121.305 992.806 114.265C986.646 107.115 983.566 97.435 983.566 85.225V31.435H1015.74V81.1C1015.74 86.38 1017.12 90.56 1019.87 93.64C1022.73 96.61 1026.47 98.095 1031.09 98.095C1035.82 98.095 1039.56 96.61 1042.31 93.64C1045.06 90.56 1046.43 86.38 1046.43 81.1V31.435H1078.94ZM1157.9 30.61C1168.57 30.61 1177.04 34.185 1183.31 41.335C1189.58 48.375 1192.71 57.945 1192.71 70.045V124H1160.37V74.335C1160.37 69.055 1159 64.93 1156.25 61.96C1153.5 58.88 1149.81 57.34 1145.19 57.34C1140.35 57.34 1136.56 58.88 1133.81 61.96C1131.06 64.93 1129.68 69.055 1129.68 74.335V124H1097.34V31.435H1129.68V44.635C1132.54 40.455 1136.39 37.1 1141.23 34.57C1146.07 31.93 1151.63 30.61 1157.9 30.61ZM1244.61 30.28C1250.88 30.28 1256.33 31.545 1260.95 34.075C1265.68 36.605 1269.31 40.015 1271.84 44.305V31.435H1304.18V123.01C1304.18 131.7 1302.53 139.51 1299.23 146.44C1295.93 153.48 1290.76 159.09 1283.72 163.27C1276.79 167.45 1267.99 169.54 1257.32 169.54C1243.02 169.54 1231.58 166.185 1223 159.475C1214.42 152.765 1209.52 143.635 1208.31 132.085H1240.16C1240.82 135.055 1242.47 137.365 1245.11 139.015C1247.75 140.665 1251.16 141.49 1255.34 141.49C1266.34 141.49 1271.84 135.33 1271.84 123.01V111.13C1269.31 115.42 1265.68 118.83 1260.95 121.36C1256.33 123.89 1250.88 125.155 1244.61 125.155C1237.24 125.155 1230.53 123.23 1224.48 119.38C1218.54 115.53 1213.81 110.03 1210.29 102.88C1206.88 95.62 1205.18 87.205 1205.18 77.635C1205.18 68.065 1206.88 59.705 1210.29 52.555C1213.81 45.405 1218.54 39.905 1224.48 36.055C1230.53 32.205 1237.24 30.28 1244.61 30.28ZM1271.84 77.635C1271.84 71.695 1270.19 67.02 1266.89 63.61C1263.7 60.2 1259.74 58.495 1255.01 58.495C1250.17 58.495 1246.15 60.2 1242.96 63.61C1239.77 66.91 1238.18 71.585 1238.18 77.635C1238.18 83.575 1239.77 88.305 1242.96 91.825C1246.15 95.235 1250.17 96.94 1255.01 96.94C1259.74 96.94 1263.7 95.235 1266.89 91.825C1270.19 88.415 1271.84 83.685 1271.84 77.635Z" fill="black"/>
</g>
<defs>
<clipPath id="clip0_73_79">
<rect width="1313" height="177" fill="white"/>
</clipPath>
</defs>
</svg>
